Coordinates
version=1
nRows=33
nColumns=38
inDegrees=no

Units are S.I. units (second, meters, Newtons, ...)
If the header above contains a line with 'inDegrees', this indicates whether rotational values are in degrees (yes) or radians (no).

endheader
time	pelvis_tilt	pelvis_list	pelvis_rotation	pelvis_tx	pelvis_ty	pelvis_tz	hip_flexion_r	hip_adduction_r	hip_rotation_r	knee_angle_r	ankle_angle_r	subtalar_angle_r	mtp_angle_r	hip_flexion_l	hip_adduction_l	hip_rotation_l	knee_angle_l	ankle_angle_l	subtalar_angle_l	mtp_angle_l	lumbar_extension	lumbar_bending	lumbar_rotation	arm_flex_r	arm_add_r	arm_rot_r	elbow_flex_r	pro_sup_r	wrist_flex_r	wrist_dev_r	arm_flex_l	arm_add_l	arm_rot_l	elbow_flex_l	pro_sup_l	wrist_flex_l	wrist_dev_l
1.24	2.85292	1.53438	-1.259	0.447729	0.688702	0.946566	0.533114	-0.0851065	-0.0982989	0.590587	-0.0430535	0	0	-0.0938912	0.0342788	-0.217042	0.242311	0.233465	0	0	-0.123186	-0.0140495	-0.168709	-0.218645	-0.0569571	-0.383006	0.427277	0.980323	0	0	-0.0212893	-0.441005	0.551806	0.710446	0.771441	0	0
1.25	2.71327	1.534	-1.11806	0.448102	0.69694	0.945375	0.530024	-0.0793507	-0.115371	0.547983	-0.0370142	0	0	-0.0969095	0.0270069	-0.220333	0.252311	0.242711	0	0	-0.123332	-0.00794199	-0.168061	-0.214282	-0.0573535	-0.383445	0.425421	0.986514	0	0	-0.0130231	-0.438566	0.547363	0.710562	0.774067	0	0
1.26	2.57087	1.53272	-0.974859	0.448603	0.705346	0.944143	0.526152	-0.0725887	-0.133143	0.50584	-0.0302886	0	0	-0.100026	0.0192075	-0.223943	0.262651	0.252214	0	0	-0.123315	-0.00154177	-0.16701	-0.209868	-0.0576632	-0.384622	0.424425	0.989813	0	0	-0.00542534	-0.436011	0.542964	0.711097	0.777272	0	0
1.27	2.43223	1.53054	-0.835684	0.449204	0.713904	0.942854	0.521502	-0.0647496	-0.150636	0.463816	-0.0234549	0	0	-0.103282	0.0109474	-0.227415	0.273071	0.262085	0	0	-0.123081	0.00512893	-0.165907	-0.205503	-0.0579247	-0.385572	0.422458	0.991321	0	0	0.00108158	-0.433388	0.537916	0.712337	0.781803	0	0
1.28	2.30834	1.52717	-0.711653	0.449925	0.722603	0.941534	0.515503	-0.0554109	-0.167063	0.421838	-0.0166378	0	0	-0.107336	0.00219826	-0.230605	0.283141	0.272468	0	0	-0.122992	0.0120878	-0.164375	-0.201263	-0.0582473	-0.385362	0.419046	0.993337	0	0	0.00682642	-0.430596	0.531989	0.713937	0.787497	0	0
1.29	2.20529	1.52292	-0.608771	0.45079	0.731491	0.940193	0.508297	-0.0447548	-0.181738	0.380189	-0.0100704	0	0	-0.112132	-0.0069492	-0.234026	0.292971	0.283206	0	0	-0.122933	0.0189763	-0.162746	-0.196962	-0.0583019	-0.385096	0.415905	0.995091	0	0	0.01158	-0.42813	0.52605	0.716576	0.793424	0	0
1.3	2.1019	1.5168	-0.504521	0.45175	0.740551	0.938821	0.498868	-0.0313261	-0.192887	0.336123	-0.00658558	0	0	-0.115056	-0.0195901	-0.241106	0.307444	0.296773	0	0	-0.122342	0.0276626	-0.163739	-0.195256	-0.0614409	-0.357604	0.418383	0.949156	0	0	0.0131873	-0.423246	0.508791	0.717263	0.822476	0	0
1.31	2.02181	1.51421	-0.424053	0.452743	0.749769	0.937241	0.493733	-0.0220941	-0.202005	0.299418	-0.00170508	0	0	-0.118985	-0.0265013	-0.242155	0.315534	0.305504	0	0	-0.119668	0.0320329	-0.163387	-0.191217	-0.0599661	-0.361503	0.415366	0.954329	0	0	0.0164819	-0.422001	0.506824	0.720258	0.82293	0	0
1.32	1.95059	1.51056	-0.352021	0.453754	0.759081	0.935656	0.487439	-0.0117569	-0.208443	0.263489	0.000462839	0	0	-0.122474	-0.0348657	-0.244874	0.325849	0.31532	0	0	-0.117442	0.037104	-0.163546	-0.187725	-0.0587178	-0.36361	0.411569	0.96001	0	0	0.0193711	-0.420523	0.504543	0.723931	0.82297	0	0
1.33	1.88736	1.50656	-0.287663	0.454779	0.768537	0.934024	0.480994	-0.00124169	-0.214212	0.230087	0.00115705	0	0	-0.125716	-0.0436473	-0.247675	0.337046	0.32513	0	0	-0.115043	0.0423407	-0.164147	-0.185119	-0.0575629	-0.365329	0.409091	0.965656	0	0	0.0216877	-0.41911	0.502949	0.726836	0.824251	0	0
1.34	1.8337	1.50246	-0.23205	0.455804	0.778196	0.932368	0.474905	0.00847737	-0.220076	0.201206	0.00158336	0	0	-0.128959	-0.0525893	-0.249695	0.348808	0.334549	0	0	-0.112387	0.0474441	-0.165796	-0.183385	-0.0562213	-0.367623	0.408105	0.96993	0	0	0.0234242	-0.418032	0.502603	0.729215	0.826554	0	0
1.35	1.78879	1.49876	-0.1848	0.456793	0.78799	0.93071	0.469864	0.0167411	-0.225335	0.178436	0.0021773	0	0	-0.132139	-0.0610365	-0.251311	0.361171	0.343208	0	0	-0.109658	0.0520492	-0.167916	-0.182492	-0.0547643	-0.370621	0.408444	0.972455	0	0	0.0247821	-0.416929	0.502741	0.731388	0.82923	0	0
1.36	1.74948	1.49567	-0.143138	0.45777	0.797887	0.929058	0.467329	0.0231485	-0.231678	0.165048	0.00413638	0	0	-0.135136	-0.0689326	-0.253436	0.374082	0.351114	0	0	-0.10687	0.0559455	-0.170218	-0.182437	-0.0532074	-0.373501	0.409107	0.974004	0	0	0.0256761	-0.41575	0.503044	0.733418	0.832009	0	0
1.37	1.71394	1.49302	-0.104911	0.458761	0.807921	0.927431	0.467799	0.0276255	-0.240256	0.162329	0.00695565	0	0	-0.137661	-0.0767006	-0.255506	0.38801	0.358122	0	0	-0.103914	0.0593064	-0.17319	-0.183202	-0.0515005	-0.377017	0.411088	0.97446	0	0	0.0257653	-0.414724	0.503555	0.735279	0.834672	0	0
1.38	1.68429	1.49072	-0.0725537	0.459756	0.81812	0.925887	0.470399	0.0306742	-0.249263	0.168891	0.00938766	0	0	-0.140413	-0.0840038	-0.256537	0.402062	0.363613	0	0	-0.100986	0.0622184	-0.176662	-0.184649	-0.0500583	-0.380039	0.412696	0.97557	0	0	0.0247275	-0.413759	0.503745	0.737145	0.836972	0	0
1.39	1.65107	1.48791	-0.0357331	0.460743	0.828531	0.924376	0.47471	0.0332944	-0.258839	0.182512	0.0110872	0	0	-0.141205	-0.0927176	-0.256718	0.419387	0.368877	0	0	-0.0970612	0.065689	-0.181625	-0.187932	-0.0499181	-0.37375	0.416766	0.959197	0	0	0.0218888	-0.41244	0.501712	0.738827	0.84348	0	0
1.4	1.63752	1.48551	-0.0189379	0.461774	0.839254	0.923205	0.475895	0.0361851	-0.261733	0.197328	0.00956431	0	0	-0.145365	-0.0996561	-0.252042	0.432735	0.369742	0	0	-0.0943969	0.0685419	-0.186219	-0.190238	-0.0491615	-0.375693	0.416448	0.964361	0	0	0.0185525	-0.411142	0.500871	0.739958	0.844179	0	0
1.41	1.62399	1.48241	-0.00222501	0.462836	0.850217	0.922165	0.476784	0.0399286	-0.262821	0.215231	0.00714242	0	0	-0.14841	-0.107704	-0.247412	0.448428	0.369731	0	0	-0.0912075	0.072308	-0.191243	-0.193434	-0.0488763	-0.37738	0.417018	0.96952	0	0	0.0134365	-0.409504	0.498693	0.741132	0.844969	0	0
1.42	1.60933	1.47861	0.0158586	0.463934	0.861445	0.921261	0.476341	0.044954	-0.26195	0.233153	0.00395745	0	0	-0.150139	-0.116798	-0.241939	0.466355	0.368337	0	0	-0.0871338	0.0769026	-0.197124	-0.197481	-0.0489948	-0.379155	0.41825	0.973912	0	0	0.00629099	-0.407561	0.494978	0.742223	0.846017	0	0
1.43	1.59131	1.47447	0.0375719	0.465075	0.872915	0.92044	0.474147	0.0509956	-0.259034	0.247958	0.00223224	0	0	-0.15008	-0.126607	-0.235169	0.486851	0.365181	0	0	-0.0818882	0.0818491	-0.203795	-0.202554	-0.049519	-0.380881	0.420171	0.977456	0	0	-0.00283897	-0.40553	0.489925	0.743539	0.84737	0	0
1.44	1.56848	1.47002	0.0640062	0.466299	0.8846	0.919665	0.470703	0.0580664	-0.255092	0.258518	0.000681959	0	0	-0.147912	-0.137199	-0.228367	0.509872	0.360386	0	0	-0.0752459	0.0870387	-0.210518	-0.208559	-0.05035	-0.382488	0.421715	0.980216	0	0	-0.0132727	-0.403231	0.48413	0.744773	0.848486	0	0
1.45	1.54157	1.46467	0.0937871	0.46768	0.896383	0.918987	0.466358	0.0668037	-0.250012	0.263487	-0.00682829	0	0	-0.143171	-0.149248	-0.222507	0.536254	0.353582	0	0	-0.067428	0.0931023	-0.216369	-0.215411	-0.0513906	-0.384245	0.423199	0.982004	0	0	-0.0243504	-0.400556	0.478479	0.745317	0.848853	0	0
1.46	1.51205	1.45779	0.124667	0.469317	0.908133	0.918511	0.462721	0.0770613	-0.245819	0.26626	-0.0235102	0	0	-0.135397	-0.163381	-0.218056	0.566634	0.344006	0	0	-0.0588722	0.100684	-0.220368	-0.222732	-0.0527813	-0.386444	0.425526	0.982445	0	0	-0.0352184	-0.397456	0.47382	0.743433	0.849841	0	0
1.47	1.48449	1.44915	0.151159	0.47127	0.919714	0.91838	0.461401	0.0884104	-0.242706	0.272324	-0.0442138	0	0	-0.124677	-0.179715	-0.215167	0.601437	0.33057	0	0	-0.0506329	0.110111	-0.221453	-0.229905	-0.0546318	-0.388344	0.427039	0.983201	0	0	-0.0451924	-0.393707	0.469953	0.73957	0.851	0	0
1.48	1.45564	1.43825	0.176502	0.47344	0.931105	0.918544	0.464392	0.100756	-0.242263	0.286231	-0.0590092	0	0	-0.109322	-0.199145	-0.214618	0.642689	0.312701	0	0	-0.0419966	0.122071	-0.220337	-0.238529	-0.0585339	-0.377923	0.432359	0.96011	0	0	-0.0550762	-0.388236	0.463884	0.733336	0.858091	0	0
1.49	1.45599	1.43034	0.169727	0.475569	0.94248	0.919464	0.464994	0.109791	-0.243265	0.30759	-0.0618599	0	0	-0.0986344	-0.213804	-0.21324	0.681901	0.287453	0	0	-0.0391372	0.13184	-0.215698	-0.243584	-0.0609241	-0.381468	0.431214	0.963621	0	0	-0.0637828	-0.384101	0.462269	0.728951	0.857528	0	0
1.5	1.44208	1.4237	0.177184	0.477528	0.953756	0.920379	0.468577	0.115732	-0.247472	0.33257	-0.0586914	0	0	-0.0805537	-0.227151	-0.211007	0.728422	0.254663	0	0	-0.0343535	0.140303	-0.210645	-0.247789	-0.061842	-0.399044	0.426439	0.992858	0	0	-0.0723111	-0.381657	0.468692	0.725874	0.839032	0	0
1.51	1.43971	1.4195	0.172979	0.479313	0.964992	0.921596	0.46698	0.120017	-0.249889	0.352159	-0.0578833	0	0	-0.0619377	-0.23683	-0.20528	0.776197	0.214321	0	0	-0.0321013	0.146693	-0.206186	-0.253624	-0.0644833	-0.400316	0.426276	0.992396	0	0	-0.0821868	-0.379527	0.472126	0.724683	0.829166	0	0
1.52	1.43201	1.41602	0.174347	0.481024	0.976023	0.922711	0.463287	0.124551	-0.250952	0.365708	-0.0599733	0	0	-0.038465	-0.245287	-0.196407	0.827745	0.170146	0	0	-0.0293098	0.152259	-0.202221	-0.260132	-0.0670388	-0.400393	0.429551	0.986929	0	0	-0.0926182	-0.378703	0.477281	0.726489	0.815467	0	0
1.53	1.41583	1.41212	0.184717	0.482781	0.986741	0.923558	0.458354	0.130677	-0.25096	0.372857	-0.0626806	0	0	-0.00922117	-0.254039	-0.184272	0.883372	0.124415	0	0	-0.0253285	0.157956	-0.198928	-0.267446	-0.0691186	-0.400705	0.436241	0.981157	0	0	-0.103401	-0.379156	0.483408	0.730269	0.802163	0	0
1.54	1.39143	1.40767	0.203747	0.484589	0.997052	0.924094	0.45335	0.138095	-0.250516	0.375568	-0.0638994	0	0	0.0254516	-0.262909	-0.169627	0.941983	0.0781149	0	0	-0.0204348	0.163919	-0.195981	-0.27421	-0.0702636	-0.406188	0.442674	0.98998	0	0	-0.114483	-0.378344	0.482437	0.731697	0.815914	0	0
1.55	1.36511	1.40249	0.225066	0.486383	1.00696	0.924324	0.448315	0.146672	-0.249729	0.375911	-0.0627567	0	0	0.0639452	-0.271988	-0.153288	1.00265	0.0321328	0	0	-0.0152813	0.170266	-0.19279	-0.284034	-0.0727394	-0.396704	0.457677	0.968781	0	0	-0.123659	-0.381774	0.496122	0.738284	0.787723	0	0
1.56	1.34246	1.39699	0.242872	0.48809	1.01662	0.924449	0.44256	0.15604	-0.24797	0.374991	-0.0603129	0	0	0.103764	-0.28036	-0.135558	1.06327	-0.011995	0	0	-0.0109593	0.17704	-0.189724	-0.292693	-0.0748016	-0.3913	0.474646	0.949828	0	0	-0.132774	-0.382663	0.500333	0.741384	0.786636	0	0
